<?xml version="1.0" encoding="UTF-8" standalone="no"?>
<svg
   xmlns:dc="http://purl.org/dc/elements/1.1/"
   xmlns:cc="http://creativecommons.org/ns#"
   xmlns:rdf="http://www.w3.org/1999/02/22-rdf-syntax-ns#"
   xmlns:svg="http://www.w3.org/2000/svg"
   xmlns="http://www.w3.org/2000/svg"
   version="1.1"
   width="625"
   height="625"
   id="svg2985"
   xml:space="preserve"><metadata
     id="metadata2991"><rdf:RDF><cc:Work
         rdf:about=""><dc:format>image/svg+xml</dc:format><dc:type
           rdf:resource="http://purl.org/dc/dcmitype/StillImage" /><dc:title></dc:title></cc:Work></rdf:RDF></metadata><defs
     id="defs2989"><clipPath
       id="clipPath3003"><path
         d="M 0.6559583,0.2237538 0.2631174,0.7363409 0.0586667,0.4880795 0.028,0.5012235 0.2689621,0.97 0.6910076,0.7027538 l 0,0.0715568 0.1051439,0 L 0.7976136,0.6355758 0.986,0.470553 0.6559583,0.2237538 z m -0.3833485,0.2196288 0,-0.0636629 -0.0825075,0.036803 0,0.0572349 0.0825075,-0.030375 z m 0.1179735,-0.0434281 0.002508,-0.0739772 -0.0912727,0.0407121 0,0.0659394 0.0887651,-0.0326743 z m -0.001068,0.0315152 -0.087697,0.0322841 0,0.0636591 L 0.38725,0.498303 0.3895152,0.4314697 z m -0.1169054,0.0430379 -0.0825075,0.030375 0,0.0605947 0.0825075,-0.0281137 0,-0.062856 z"
         id="path3005" /></clipPath></defs><g
     transform="matrix(1.25,0,0,-1.25,0,625)"
     id="g2993"><path
       d="m 187.81967,353.60507 0,41.3383 56.6155,25.16244 0,-44.03428 z m -69.19672,-25.16245 0,35.04769 51.22355,23.36513 0,-39.54098 z m 70.09538,-33.25037 0,38.64233 53.91952,20.66915 -0.89865,-41.33831 z m -70.09538,-24.26379 -0.89866,37.74367 52.12221,19.77049 -0.89866,-39.54098 z M 17.074516,312.26677 168.04918,18.405365 l 263.307,167.150525 0,-44.93294 65.60209,1.79732 0.89866,85.37258 L 615.58122,330.23994 409.78838,484.80924 164.45455,163.08942 37.743666,319.45604 z"
       transform="matrix(0.8,0,0,-0.8,0,500)"
       id="path3027"
       style="fill:#32CDCA;fill-opacity:1;stroke:none" /></g></svg>