<?xml version="1.0" encoding="UTF-8" standalone="no"?>
<!-- Created with Inkscape (http://www.inkscape.org/) -->

<svg
   xmlns:dc="http://purl.org/dc/elements/1.1/"
   xmlns:cc="http://creativecommons.org/ns#"
   xmlns:rdf="http://www.w3.org/1999/02/22-rdf-syntax-ns#"
   xmlns:svg="http://www.w3.org/2000/svg"
   xmlns="http://www.w3.org/2000/svg"
   xmlns:sodipodi="http://sodipodi.sourceforge.net/DTD/sodipodi-0.dtd"
   xmlns:inkscape="http://www.inkscape.org/namespaces/inkscape"
   version="1.2"
   width="150"
   height="40"
   id="svg3822"
   inkscape:version="0.48.5 r10040"
   sodipodi:docname="padhopr.svg">
  <g
     id="layer1"
     transform="matrix(1.011378,0,0,1,-103.05527,-99.612341)"
     style="fill:none;stroke:none">
    <path
       d="m 164.02088,99.612341 -5.375,0.406249 0,7.59375 c -1.70656,-0.63962 -3.42725,-0.96873 -5.1875,-0.96875 -6.23942,2e-5 -9.375,3.99994 -9.375,12 0,8.00009 2.57226,11.99999 7.71875,12 2.61311,-1e-5 5.03644,-1.139 7.25,-3.40625 l 1.46875,2.84375 3.5,0 0,-30.468749 z m 10.625,0 -5.34375,0.406249 0,30.0625 5.34375,0 0,-17.5 c 1.65364,-1.20034 3.45523,-1.81248 5.375,-1.8125 1.22638,2e-5 2.06891,0.28387 2.5625,0.84375 0.49355,0.55992 0.74998,1.51516 0.75,2.875 l 0,15.59375 5.34375,0 0,-16.15625 c -2e-5,-2.26723 -0.57652,-4.0506 -1.75,-5.34375 -1.17353,-1.29311 -2.96169,-1.93748 -5.375,-1.9375 -2.41335,2e-5 -4.71957,0.66181 -6.90625,1.96875 l 0,-8.999999 z m -62.03125,7.031249 c -2.2396,2e-5 -4.48276,0.76109 -6.75,2.28125 l -1.40625,-1.71875 -2.5625,0 0,31.8125 5.375,-0.71875 0,-8.4375 c 1.86685,0.53386 3.58755,0.78124 5.1875,0.78125 6.24022,-1e-5 9.37498,-3.99991 9.375,-12 -2e-5,-8.00006 -3.08514,-11.99998 -9.21875,-12 z m 20.21875,0 c -4.72006,2e-5 -7.57976,2.13951 -8.59375,6.40625 l 4.15625,1.25 c 0.42724,-2.34699 1.80565,-3.53123 4.125,-3.53125 2.4536,2e-5 3.65623,1.28794 3.65625,3.875 l 0,1.9375 -4.78125,0.71875 c -3.28044,0.48016 -5.5188,1.29526 -6.71875,2.46875 -1.19995,1.17351 -1.8125,2.71868 -1.8125,4.625 0,1.90633 0.54028,3.42887 1.59375,4.5625 1.05347,1.13362 2.56737,1.68749 4.59375,1.6875 2.85399,-1e-5 5.36702,-1.10335 7.5,-3.34375 l 1.5,2.78125 3.5,0 0,-15.46875 c -2e-5,-5.30678 -2.90578,-7.96873 -8.71875,-7.96875 z m 68.75,0 c -6.93319,2e-5 -10.40625,3.99994 -10.40625,12 0,8.00009 3.47306,11.99999 10.40625,12 6.93317,-1e-5 10.37498,-4.00032 10.375,-12 -2e-5,-8.00047 -3.44183,-11.99998 -10.375,-12 z m 24.03125,0 c -2.23959,2e-5 -4.51401,0.76109 -6.78125,2.28125 l -1.375,-1.71875 -2.5625,0 0,31.8125 5.34375,-0.71875 0,-8.4375 c 1.86685,0.53386 3.6188,0.78124 5.21875,0.78125 6.24022,-1e-5 9.34373,-3.99991 9.34375,-12 -2e-5,-8.00006 -3.05389,-11.99998 -9.1875,-12 z m 24.59375,0 c -3.3602,0.13349 -5.9725,1.5119 -7.8125,4.125 l -2.125,-3.5625 -2.5,0 0,22.875 5.34375,0 0,-15.9375 c 1.57306,-1.83999 3.94677,-2.82566 7.09375,-2.90625 l 0,-4.59375 z m -139.0625,4.125 c 3.54653,2e-5 5.31248,2.62193 5.3125,7.875 -2e-5,2.56023 -0.39195,4.52816 -1.21875,5.875 -0.82684,1.34685 -2.20526,2.00001 -4.125,2 -1.30698,1e-5 -2.59051,-0.15771 -3.84375,-0.53125 l 0,-14.09375 c 1.22639,-0.74705 2.51431,-1.12498 3.875,-1.125 z m 43.65625,0 c 1.25405,2e-5 2.53758,0.27948 3.84375,0.8125 l 0,12.375 c -1.49334,1.70736 -3.06593,2.56251 -4.71875,2.5625 -2.98666,1e-5 -4.46876,-2.62109 -4.46875,-7.875 -1e-5,-2.58625 0.39233,-4.54157 1.21875,-5.875 0.82641,-1.33339 2.20523,-1.99998 4.125,-2 z m 46.78125,0 c 1.97345,2e-5 3.30663,0.66661 4,2 0.69334,1.33343 1.03123,3.28835 1.03125,5.875 -2e-5,2.58668 -0.33791,4.54159 -1.03125,5.875 -0.69337,1.33342 -2.02655,2.00001 -4,2 -1.97348,1e-5 -3.30665,-0.66699 -4,-2 -0.69255,-1.33381 -1.0625,-3.28832 -1.0625,-5.875 0,-2.58665 0.36954,-4.54157 1.0625,-5.875 0.69295,-1.33339 2.02652,-1.99998 4,-2 z m 22.53125,0 c 3.54653,2e-5 5.34373,2.62193 5.34375,7.875 -2e-5,2.56023 -0.42319,4.52816 -1.25,5.875 -0.82684,1.34685 -2.20526,2.00001 -4.125,2 -1.30698,1e-5 -2.59051,-0.15771 -3.84375,-0.53125 l 0,-14.09375 c 1.22639,-0.74705 2.51431,-1.12498 3.875,-1.125 z m -87.9375,9.15625 0,4.125 c -1.78631,1.7863 -3.5923,2.6875 -5.40625,2.6875 -0.85288,0 -1.51986,-0.23421 -2,-0.6875 -0.48015,-0.45329 -0.71876,-1.07503 -0.71875,-1.875 -1e-5,-0.79996 0.28385,-1.51619 0.84375,-2.15625 0.55989,-0.64005 1.7041,-1.11327 3.4375,-1.40625 l 3.84375,-0.6875 z"
       id="path3942"
       inkscape:connector-curvature="0"
       style="fill:#a2c33d;stroke:none" />
  </g>
</svg>
