<svg xmlns="http://www.w3.org/2000/svg" version="1.2" width="150" height="40"><path d="M62.832 0l-5.436.406V8c-1.726-.64-3.467-.97-5.247-.97-6.31 0-9.483 4-9.483 12s2.602 12 7.807 12c2.643 0 5.094-1.138 7.333-3.405l1.485 2.844h3.54V0zm10.746 0l-5.405.406V30.47h5.405v-17.5c1.672-1.202 3.494-1.814 5.436-1.814 1.24 0 2.092.284 2.592.844s.758 1.515.758 2.875V30.47h5.405V14.31c0-2.267-.584-4.05-1.77-5.343-1.188-1.294-2.997-1.94-5.437-1.94-2.44 0-4.774.663-6.985 1.97V0zM10.84 7.03c-2.264 0-4.533.762-6.826 2.282L2.592 7.594H0v31.812l5.436-.72V30.25c1.888.534 3.63.78 5.247.78 6.31 0 9.48-4 9.48-12s-3.12-12-9.322-12zm20.45 0c-4.774 0-7.667 2.14-8.692 6.407l4.203 1.25c.434-2.346 1.828-3.53 4.173-3.53 2.482 0 3.698 1.287 3.698 3.874v1.94l-4.834.717c-3.318.48-5.582 1.296-6.796 2.47-1.213 1.173-1.833 2.718-1.833 4.624 0 1.908.547 3.43 1.612 4.564 1.065 1.133 2.596 1.687 4.645 1.687 2.887 0 5.428-1.102 7.586-3.343l1.518 2.782h3.54V15c0-5.307-2.94-7.97-8.82-7.97zm69.532 0c-7.012 0-10.525 4-10.525 12s3.513 12 10.525 12c7.012 0 10.493-4 10.493-12s-3.48-12-10.493-12zm24.304 0c-2.265 0-4.565.762-6.858 2.282l-1.39-1.718h-2.592v31.812l5.404-.72V30.25c1.888.534 3.66.78 5.278.78 6.312 0 9.45-4 9.45-12s-3.088-12-9.292-12zm24.874 0c-3.398.135-6.04 1.513-7.9 4.126l-2.15-3.562h-2.53V30.47h5.406V14.53c1.59-1.84 3.99-2.824 7.174-2.905V7.03zM9.355 11.157c3.587 0 5.373 2.622 5.373 7.875 0 2.56-.396 4.53-1.232 5.876-.837 1.347-2.23 2-4.172 2-1.322 0-2.62-.157-3.888-.53V12.28c1.24-.746 2.543-1.124 3.92-1.124zm44.153 0c1.27 0 2.567.28 3.888.813v12.374c-1.51 1.707-3.1 2.562-4.773 2.562-3.02 0-4.52-2.62-4.52-7.875 0-2.585.397-4.54 1.233-5.874.836-1.333 2.23-2 4.172-2zm47.314 0c1.996 0 3.344.667 4.045 2 .7 1.334 1.043 3.29 1.043 5.875 0 2.588-.342 4.543-1.043 5.876-.7 1.334-2.05 2-4.045 2-1.996 0-3.345-.667-4.046-2-.7-1.334-1.074-3.288-1.074-5.875 0-2.585.373-4.54 1.074-5.874.7-1.333 2.05-2 4.046-2zm22.787 0c3.586 0 5.404 2.622 5.404 7.875 0 2.56-.428 4.53-1.264 5.876-.837 1.347-2.23 2-4.172 2-1.322 0-2.62-.157-3.888-.53V12.28c1.24-.746 2.543-1.124 3.92-1.124zm-88.94 9.156v4.125c-1.805 1.787-3.632 2.688-5.466 2.688-.863 0-1.538-.234-2.023-.688-.485-.453-.726-1.075-.726-1.875s.287-1.516.853-2.156c.566-.64 1.724-1.113 3.477-1.406l3.887-.688z" fill="#a2c33d"/></svg>